<svg width="290" height="285" viewBox="0 0 290 285" fill="none" xmlns="http://www.w3.org/2000/svg">
<path d="M288 142.5C288 221.201 224.201 285 145.5 285C66.7994 285 3 221.201 3 142.5C3 63.7994 66.7994 0 145.5 0C224.201 0 288 63.7994 288 142.5ZM60 142.5C60 189.72 98.2797 228 145.5 228C192.72 228 231 189.72 231 142.5C231 95.2797 192.72 57 145.5 57C98.2797 57 60 95.2797 60 142.5Z" fill="#F7B318"/>
<path d="M157.945 31.737C157.303 31.652 156.721 31.4785 156.2 31.2166C155.683 30.9552 155.253 30.6108 154.912 30.1835C154.57 29.7561 154.328 29.2474 154.186 28.6572C154.047 28.0675 154.026 27.4048 154.124 26.669C154.214 25.9835 154.399 25.3755 154.678 24.845C154.957 24.3145 155.318 23.8757 155.762 23.5285C156.188 23.1948 156.692 22.9599 157.274 22.824C157.859 22.6886 158.481 22.6644 159.139 22.7515C159.503 22.7996 159.828 22.8641 160.112 22.9451C160.402 23.0228 160.666 23.1109 160.905 23.2095C161.155 23.3173 161.378 23.4316 161.575 23.5522C161.776 23.6694 161.951 23.7772 162.099 23.8757L161.822 25.9726L161.567 25.9389C161.47 25.8316 161.348 25.703 161.198 25.5532C161.052 25.4039 160.883 25.2535 160.69 25.1019C160.494 24.9499 160.277 24.8149 160.04 24.6969C159.804 24.5789 159.544 24.5013 159.261 24.4639C158.948 24.4224 158.643 24.4334 158.347 24.4967C158.051 24.5561 157.769 24.6842 157.498 24.881C157.241 25.0715 157.016 25.3393 156.825 25.6844C156.637 26.03 156.509 26.4622 156.44 26.9812C156.369 27.5233 156.384 27.9864 156.487 28.3704C156.594 28.7549 156.75 29.067 156.955 29.3069C157.163 29.5511 157.406 29.7389 157.684 29.8702C157.963 29.9977 158.243 30.0801 158.526 30.1174C158.797 30.1533 159.07 30.1479 159.344 30.1014C159.622 30.0554 159.882 29.9776 160.125 29.8678C160.33 29.7806 160.522 29.6839 160.701 29.5776C160.881 29.4713 161.029 29.3786 161.146 29.2994L161.378 29.3302L161.105 31.3981C160.875 31.4663 160.656 31.5299 160.447 31.589C160.239 31.648 160.022 31.6942 159.797 31.7275C159.503 31.7715 159.23 31.7984 158.976 31.8082C158.723 31.8181 158.379 31.7943 157.945 31.737Z" fill="#013237"/>
<path d="M178.783 31.3632C178.403 32.7007 177.717 33.6548 176.726 34.2256C175.736 34.7927 174.565 34.8837 173.212 34.4987C171.863 34.1147 170.917 33.4211 170.375 32.4177C169.833 31.4105 169.752 30.2382 170.133 28.9007C170.517 27.552 171.203 26.5959 172.192 26.0327C173.182 25.4656 174.351 25.3741 175.7 25.758C177.045 26.1409 177.991 26.8345 178.538 27.839C179.085 28.8397 179.167 30.0144 178.783 31.3632ZM175.31 32.6712C175.593 32.4756 175.835 32.2195 176.035 31.9027C176.235 31.5822 176.403 31.1871 176.536 30.7175C176.68 30.214 176.743 29.7692 176.727 29.3828C176.712 28.9965 176.641 28.6677 176.515 28.3963C176.387 28.1163 176.212 27.8898 175.989 27.7167C175.77 27.5447 175.526 27.4202 175.255 27.3432C174.981 27.2651 174.708 27.2402 174.436 27.2683C174.167 27.2976 173.9 27.396 173.633 27.5637C173.385 27.7206 173.148 27.9679 172.922 28.3056C172.701 28.6407 172.52 29.0524 172.381 29.5408C172.239 30.0405 172.174 30.4829 172.186 30.8682C172.203 31.2507 172.274 31.5796 172.399 31.8547C172.524 32.1299 172.697 32.3559 172.919 32.5327C173.141 32.7096 173.39 32.8376 173.668 32.9167C173.946 32.9958 174.226 33.0186 174.508 32.9851C174.791 32.9478 175.058 32.8432 175.31 32.6712Z" fill="#013237"/>
<path d="M193.082 41.4548L191.109 40.5556L190.224 33.5707L187.74 39.0196L185.863 38.1641L189.482 30.2254L191.929 31.3409L192.751 37.2085L194.824 32.6606L196.701 33.5161L193.082 41.4548Z" fill="#013237"/>
<path d="M207.509 48.9671C207.099 48.8819 206.582 48.7274 205.958 48.5037C205.337 48.2767 204.758 47.9886 204.221 47.6393C202.977 46.83 202.222 45.8592 201.957 44.7267C201.693 43.591 201.949 42.4271 202.725 41.2352C203.464 40.0989 204.414 39.4147 205.576 39.1826C206.741 38.9473 207.958 39.2428 209.228 40.0691C209.71 40.3822 210.14 40.7246 210.518 41.0962C210.898 41.4646 211.271 41.9517 211.636 42.5576L210.521 44.2718L210.31 44.1345C210.263 44.0061 210.192 43.8222 210.096 43.5827C210.002 43.34 209.902 43.1212 209.796 42.9263C209.674 42.698 209.51 42.4631 209.303 42.2217C209.1 41.9824 208.856 41.7701 208.571 41.5848C208.237 41.3676 207.902 41.2197 207.567 41.1411C207.231 41.0626 206.889 41.0546 206.541 41.117C206.207 41.1793 205.88 41.3234 205.561 41.5491C205.247 41.7737 204.961 42.0841 204.704 42.4803C204.178 43.2892 203.99 44.0476 204.14 44.7555C204.29 45.4635 204.784 46.0901 205.622 46.6353C205.694 46.6821 205.774 46.7316 205.861 46.7837C205.951 46.838 206.035 46.8852 206.111 46.9255L207.044 45.4912L205.585 44.5425L206.483 43.1622L209.857 45.3569L207.509 48.9671Z" fill="#013237"/>
<path d="M218.297 57.6862L214.38 54.4055L215.373 53.2196L216.469 54.1376L220.084 49.8209L218.988 48.9029L219.982 47.717L223.899 50.9977L222.905 52.1836L221.809 51.2656L218.194 55.5823L219.29 56.5003L218.297 57.6862Z" fill="#013237"/>
<path d="M232.346 61.339L230.455 59.3769L225.388 64.2594L223.827 62.6391L228.894 57.7566L227.004 55.7945L228.219 54.6236L233.561 60.1682L232.346 61.339Z" fill="#013237"/>
<path d="M234.877 75.1787L231.745 71.142L232.967 70.1937L233.843 71.3233L238.292 67.8713L237.415 66.7418L238.637 65.7935L241.77 69.8301L240.548 70.7784L239.671 69.6489L235.222 73.1009L236.099 74.2304L234.877 75.1787Z" fill="#013237"/>
<path d="M249.867 81.8386L240.76 83.6594L239.45 81.5075L245.246 74.252L246.475 76.2688L242.337 81.2583L248.669 79.8719L249.867 81.8386Z" fill="#013237"/>
<path d="M248.583 98.5119L246.036 92.738L254.019 89.2171L256.566 94.9909L255.022 95.6719L253.378 91.946L252 92.5537L253.526 96.0116L251.982 96.6926L250.456 93.2347L248.483 94.1049L250.127 97.8309L248.583 98.5119Z" fill="#013237"/>
<path d="M258.385 120.693C257.543 120.867 256.785 120.65 256.109 120.044C255.438 119.44 254.976 118.527 254.724 117.302C254.578 116.595 254.512 115.964 254.525 115.411C254.543 114.861 254.601 114.336 254.697 113.838L256.746 113.415L256.796 113.656C256.526 114.186 256.352 114.753 256.273 115.356C256.194 115.962 256.209 116.525 256.316 117.046C256.344 117.18 256.392 117.353 256.46 117.566C256.528 117.78 256.602 117.95 256.684 118.077C256.788 118.231 256.903 118.351 257.028 118.436C257.154 118.526 257.319 118.55 257.521 118.508C257.709 118.469 257.853 118.356 257.954 118.168C258.059 117.982 258.116 117.729 258.126 117.408C258.136 117.071 258.137 116.716 258.128 116.343C258.123 115.973 258.14 115.62 258.179 115.285C258.264 114.518 258.472 113.935 258.805 113.535C259.142 113.138 259.607 112.879 260.2 112.757C260.996 112.593 261.717 112.815 262.365 113.423C263.018 114.034 263.46 114.9 263.691 116.021C263.807 116.583 263.866 117.15 263.868 117.72C263.874 118.293 263.837 118.797 263.755 119.233L261.787 119.639L261.738 119.403C261.943 119.002 262.085 118.532 262.165 117.993C262.25 117.457 262.239 116.929 262.132 116.409C262.094 116.225 262.043 116.044 261.978 115.866C261.918 115.691 261.836 115.526 261.732 115.372C261.644 115.235 261.53 115.125 261.389 115.042C261.252 114.959 261.109 114.932 260.96 114.963C260.734 115.01 260.578 115.132 260.491 115.329C260.408 115.526 260.366 115.873 260.365 116.372C260.365 116.699 260.364 117.012 260.362 117.312C260.36 117.615 260.341 117.945 260.302 118.3C260.223 118.998 260.03 119.54 259.722 119.927C259.42 120.316 258.974 120.572 258.385 120.693Z" fill="#013237"/>
<path d="M257.268 133.224C257.225 132.577 257.28 131.972 257.433 131.41C257.587 130.851 257.84 130.362 258.191 129.943C258.543 129.524 258.994 129.186 259.544 128.929C260.095 128.677 260.74 128.525 261.481 128.475C262.171 128.429 262.803 128.489 263.378 128.658C263.953 128.827 264.455 129.094 264.883 129.461C265.295 129.813 265.624 130.26 265.873 130.803C266.121 131.35 266.268 131.955 266.313 132.617C266.337 132.984 266.338 133.315 266.315 133.61C266.296 133.909 266.262 134.185 266.213 134.439C266.156 134.705 266.088 134.946 266.009 135.163C265.934 135.384 265.863 135.576 265.796 135.741L263.685 135.884L263.668 135.627C263.754 135.512 263.856 135.366 263.973 135.189C264.091 135.017 264.205 134.821 264.315 134.603C264.425 134.38 264.515 134.141 264.584 133.885C264.653 133.63 264.677 133.36 264.658 133.076C264.637 132.76 264.566 132.464 264.445 132.186C264.328 131.908 264.147 131.656 263.901 131.43C263.663 131.215 263.356 131.048 262.98 130.928C262.604 130.813 262.155 130.773 261.633 130.808C261.087 130.845 260.636 130.952 260.28 131.129C259.924 131.309 259.649 131.524 259.455 131.772C259.256 132.024 259.12 132.3 259.047 132.598C258.977 132.897 258.951 133.188 258.971 133.473C258.989 133.745 259.048 134.012 259.148 134.271C259.248 134.534 259.376 134.774 259.532 134.991C259.657 135.174 259.79 135.343 259.93 135.498C260.07 135.653 260.19 135.78 260.291 135.879L260.306 136.113L258.225 136.254C258.113 136.042 258.007 135.84 257.908 135.647C257.809 135.454 257.721 135.25 257.644 135.036C257.542 134.757 257.462 134.495 257.402 134.248C257.343 134.002 257.298 133.66 257.268 133.224Z" fill="#013237"/>
<path d="M257.692 149.546L257.93 144.442L259.475 144.514L259.409 145.942L265.033 146.205L265.1 144.777L266.645 144.849L266.407 149.953L264.861 149.881L264.928 148.453L259.304 148.19L259.237 149.618L257.692 149.546Z" fill="#013237"/>
<path d="M256.415 161.366L257.39 155.131L266.009 156.479L265.034 162.714L263.367 162.453L263.996 158.43L262.509 158.197L261.925 161.931L260.257 161.67L260.841 157.937L258.711 157.603L258.082 161.627L256.415 161.366Z" fill="#013237"/>
<path d="M252.772 176.84L253.397 174.764L260.199 172.945L254.465 171.218L255.059 169.244L263.413 171.759L262.638 174.334L256.935 175.94L261.721 177.381L261.126 179.356L252.772 176.84Z" fill="#013237"/>
<path d="M248.287 188.389C248.561 187.801 248.9 187.298 249.306 186.879C249.71 186.464 250.167 186.157 250.677 185.959C251.187 185.761 251.745 185.682 252.351 185.723C252.955 185.767 253.593 185.945 254.266 186.258C254.893 186.55 255.418 186.908 255.841 187.333C256.264 187.758 256.574 188.234 256.773 188.761C256.964 189.268 257.037 189.819 256.993 190.414C256.947 191.013 256.784 191.614 256.504 192.216C256.349 192.549 256.191 192.839 256.028 193.087C255.868 193.34 255.704 193.565 255.539 193.764C255.361 193.97 255.185 194.149 255.011 194.301C254.839 194.458 254.684 194.592 254.546 194.704L252.628 193.813L252.736 193.579C252.868 193.519 253.027 193.44 253.215 193.342C253.401 193.248 253.595 193.131 253.797 192.993C254.001 192.851 254.195 192.685 254.378 192.494C254.561 192.304 254.713 192.079 254.833 191.821C254.967 191.534 255.048 191.239 255.076 190.938C255.107 190.638 255.07 190.33 254.963 190.013C254.858 189.71 254.67 189.416 254.398 189.13C254.124 188.848 253.75 188.596 253.275 188.376C252.78 188.145 252.333 188.021 251.936 188.005C251.537 187.992 251.193 188.047 250.902 188.17C250.607 188.296 250.355 188.472 250.147 188.698C249.942 188.926 249.779 189.169 249.659 189.427C249.544 189.675 249.467 189.937 249.43 190.212C249.39 190.491 249.387 190.763 249.419 191.028C249.441 191.249 249.476 191.462 249.523 191.665C249.571 191.868 249.615 192.037 249.656 192.172L249.557 192.385L247.665 191.505C247.669 191.266 247.674 191.037 247.68 190.821C247.686 190.604 247.707 190.383 247.742 190.158C247.788 189.865 247.844 189.596 247.911 189.351C247.977 189.106 248.103 188.786 248.287 188.389Z" fill="#013237"/>
<path d="M239.976 204.146L243.37 198.826L250.726 203.518L247.332 208.839L245.909 207.931L248.099 204.498L246.83 203.688L244.797 206.874L243.375 205.967L245.407 202.78L243.589 201.621L241.399 205.054L239.976 204.146Z" fill="#013237"/>
<path d="M232.689 220.511C233.28 221.079 233.584 221.772 233.6 222.59C233.613 223.41 233.336 224.116 232.768 224.707C232.199 225.299 231.506 225.602 230.689 225.619C229.869 225.638 229.163 225.363 228.571 224.794C227.98 224.226 227.678 223.532 227.664 222.711C227.648 221.894 227.924 221.189 228.492 220.598C229.061 220.007 229.755 219.701 230.575 219.682C231.393 219.666 232.097 219.942 232.689 220.511Z" fill="#013237"/>
<path d="M210.913 234.495C211.448 234.128 211.996 233.868 212.558 233.713C213.117 233.561 213.667 233.53 214.207 233.619C214.746 233.708 215.267 233.924 215.768 234.267C216.266 234.612 216.725 235.09 217.145 235.702C217.537 236.272 217.806 236.847 217.954 237.428C218.102 238.009 218.127 238.577 218.03 239.132C217.937 239.665 217.72 240.177 217.379 240.667C217.034 241.159 216.589 241.594 216.041 241.97C215.739 242.178 215.454 242.347 215.189 242.477C214.922 242.613 214.667 242.725 214.423 242.812C214.165 242.899 213.923 242.963 213.696 243.005C213.468 243.053 213.266 243.09 213.09 243.116L211.892 241.373L212.104 241.227C212.248 241.242 212.425 241.255 212.636 241.266C212.845 241.28 213.071 241.278 213.316 241.262C213.563 241.243 213.815 241.199 214.069 241.128C214.324 241.057 214.569 240.941 214.804 240.779C215.065 240.6 215.284 240.388 215.462 240.143C215.641 239.901 215.766 239.616 215.835 239.289C215.899 238.975 215.886 238.626 215.797 238.242C215.705 237.859 215.511 237.452 215.215 237.021C214.905 236.57 214.583 236.237 214.25 236.02C213.913 235.806 213.589 235.679 213.276 235.637C212.958 235.595 212.652 235.619 212.357 235.707C212.065 235.799 211.801 235.926 211.566 236.087C211.341 236.242 211.142 236.428 210.969 236.646C210.794 236.867 210.652 237.099 210.545 237.343C210.451 237.545 210.373 237.745 210.311 237.944C210.249 238.144 210.201 238.312 210.167 238.449L209.974 238.581L208.793 236.862C208.918 236.658 209.038 236.464 209.154 236.28C209.269 236.097 209.399 235.917 209.544 235.742C209.733 235.513 209.918 235.309 210.1 235.132C210.281 234.956 210.553 234.743 210.913 234.495Z" fill="#013237"/>
<path d="M195.682 248.729C195.069 247.48 194.939 246.313 195.292 245.225C195.648 244.141 196.456 243.289 197.719 242.669C198.977 242.05 200.144 241.932 201.219 242.313C202.296 242.698 203.141 243.515 203.754 244.763C204.373 246.022 204.503 247.191 204.146 248.272C203.791 249.356 202.984 250.207 201.726 250.826C200.47 251.442 199.303 251.561 198.225 251.181C197.148 250.805 196.3 249.987 195.682 248.729ZM197.385 245.431C197.305 245.766 197.298 246.118 197.362 246.487C197.427 246.859 197.567 247.265 197.783 247.703C198.014 248.173 198.264 248.546 198.535 248.822C198.805 249.098 199.078 249.295 199.353 249.412C199.636 249.535 199.917 249.586 200.199 249.565C200.477 249.546 200.742 249.474 200.994 249.35C201.25 249.225 201.47 249.06 201.653 248.857C201.832 248.656 201.965 248.403 202.051 248.1C202.13 247.818 202.14 247.475 202.082 247.073C202.022 246.676 201.88 246.25 201.656 245.794C201.427 245.327 201.179 244.955 200.912 244.677C200.643 244.405 200.37 244.208 200.093 244.087C199.816 243.967 199.536 243.915 199.253 243.932C198.97 243.949 198.699 244.022 198.439 244.149C198.18 244.277 197.957 244.447 197.77 244.661C197.585 244.878 197.457 245.134 197.385 245.431Z" fill="#013237"/>
<path d="M177.103 251.178L179.243 250.521L180.959 256.105L181.391 252.006L182.875 251.55L185.535 254.698L183.819 249.114L185.846 248.491L188.409 256.831L185.911 257.599L182.749 253.991L182.164 258.75L179.666 259.518L177.103 251.178Z" fill="#013237"/>
<path d="M162.191 260.492C162.13 260.106 162.139 259.718 162.216 259.326C162.293 258.938 162.438 258.599 162.65 258.309C162.94 257.916 163.284 257.599 163.681 257.359C164.075 257.119 164.586 256.95 165.215 256.852L166.598 256.635L166.159 253.828L168.382 253.48L169.731 262.099L166.073 262.672C165.525 262.758 165.056 262.782 164.666 262.744C164.274 262.711 163.918 262.622 163.599 262.478C163.216 262.305 162.906 262.055 162.669 261.728C162.428 261.402 162.269 260.99 162.191 260.492ZM164.481 260.08C164.519 260.324 164.617 260.522 164.775 260.675C164.934 260.832 165.106 260.932 165.291 260.974C165.537 261.03 165.77 261.045 165.992 261.018C166.213 260.995 166.508 260.955 166.874 260.898L167.256 260.838L166.852 258.256L166.215 258.356C165.837 258.415 165.53 258.487 165.294 258.571C165.055 258.656 164.863 258.781 164.718 258.946C164.595 259.092 164.516 259.255 164.48 259.434C164.442 259.618 164.442 259.834 164.481 260.08Z" fill="#013237"/>
<path d="M147.183 258.832C147.158 257.754 147.467 256.92 148.11 256.331C148.753 255.742 149.713 255.433 150.99 255.403C152.267 255.374 153.24 255.639 153.909 256.198C154.574 256.757 154.92 257.573 154.944 258.647L155.073 264.218L152.812 264.27L152.686 258.828C152.672 258.223 152.535 257.775 152.274 257.484C152.014 257.193 151.598 257.054 151.028 257.067C150.466 257.08 150.059 257.232 149.808 257.523C149.553 257.814 149.432 258.274 149.447 258.903L149.572 264.345L147.311 264.397L147.183 258.832Z" fill="#013237"/>
<path d="M130.931 261.848L133.639 262.148L134.415 255.154L136.651 255.402L135.875 262.397L138.583 262.697L138.397 264.374L130.745 263.525L130.931 261.848Z" fill="#013237"/>
<path d="M118.566 252.441L124.702 253.915L122.664 262.398L116.528 260.925L116.922 259.284L120.882 260.235L121.234 258.771L117.559 257.888L117.953 256.247L121.628 257.13L122.132 255.033L118.172 254.082L118.566 252.441Z" fill="#013237"/>
<path d="M104.101 254.315C104.023 254.519 103.997 254.71 104.024 254.888C104.052 255.066 104.151 255.237 104.323 255.399C104.443 255.512 104.595 255.611 104.78 255.695C104.964 255.783 105.182 255.876 105.433 255.973L106.193 256.266L107.04 254.075L106.395 253.826C106.06 253.696 105.773 253.604 105.534 253.549C105.296 253.495 105.077 253.496 104.879 253.554C104.69 253.61 104.536 253.693 104.419 253.803C104.296 253.915 104.19 254.085 104.101 254.315ZM103.01 247.404L105.573 248.394L106.639 252.236L107.606 252.61L108.759 249.626L110.847 250.433L107.702 258.571L104.182 257.21C103.701 257.025 103.298 256.837 102.973 256.649C102.648 256.46 102.37 256.217 102.138 255.918C101.902 255.617 101.751 255.287 101.685 254.926C101.614 254.568 101.663 254.17 101.832 253.733C102.065 253.132 102.394 252.696 102.821 252.425C103.245 252.154 103.764 251.992 104.378 251.94L103.01 247.404Z" fill="#013237"/>
<path d="M81.3202 238.911C81.7947 238.195 82.4853 237.814 83.392 237.767C84.2932 237.722 85.2649 238.045 86.3071 238.735C86.9096 239.134 87.401 239.535 87.7814 239.937C88.1564 240.34 88.4854 240.752 88.7684 241.174L87.6133 242.918L87.4081 242.782C87.2255 242.216 86.9498 241.691 86.5811 241.208C86.2091 240.723 85.8016 240.333 85.3587 240.04C85.2447 239.964 85.0885 239.875 84.8899 239.772C84.6913 239.668 84.5183 239.6 84.3709 239.568C84.1887 239.532 84.023 239.528 83.8735 239.555C83.7209 239.581 83.5874 239.68 83.473 239.852C83.3673 240.012 83.3451 240.194 83.4064 240.398C83.4623 240.604 83.6 240.824 83.8196 241.059C84.05 241.305 84.2999 241.557 84.5694 241.815C84.8334 242.075 85.0699 242.337 85.2787 242.601C85.7594 243.206 86.0227 243.766 86.0687 244.284C86.1093 244.803 85.9624 245.315 85.628 245.82C85.1794 246.497 84.5109 246.848 83.6226 246.874C82.7289 246.9 81.8049 246.598 80.8507 245.966C80.3719 245.649 79.931 245.289 79.5278 244.886C79.1193 244.484 78.7904 244.1 78.5412 243.733L79.6509 242.058L79.8512 242.19C79.989 242.619 80.2195 243.053 80.5426 243.492C80.8602 243.932 81.2405 244.298 81.6835 244.592C81.8398 244.695 82.0037 244.787 82.1751 244.868C82.3411 244.95 82.5151 245.009 82.6973 245.045C82.8566 245.08 83.0153 245.078 83.1734 245.037C83.3293 245 83.4493 244.918 83.5334 244.791C83.6607 244.599 83.6856 244.402 83.608 244.201C83.5283 244.003 83.313 243.726 82.962 243.372C82.7316 243.14 82.5115 242.917 82.3018 242.703C82.0888 242.487 81.8708 242.239 81.6479 241.961C81.2118 241.409 80.9665 240.888 80.9119 240.398C80.8519 239.908 80.988 239.413 81.3202 238.911Z" fill="#013237"/>
<path d="M73.2031 229.179C73.6901 229.608 74.0772 230.075 74.3645 230.583C74.6488 231.088 74.8141 231.613 74.8602 232.158C74.9063 232.703 74.8245 233.26 74.6148 233.83C74.4022 234.397 74.0509 234.959 73.5608 235.517C73.1043 236.036 72.6126 236.439 72.0857 236.724C71.5589 237.01 71.0144 237.174 70.4525 237.216C69.9126 237.256 69.3632 237.171 68.8044 236.96C68.2427 236.747 67.7125 236.422 67.2137 235.983C66.938 235.741 66.7042 235.507 66.5126 235.281C66.3154 235.056 66.1449 234.835 66.001 234.621C65.8534 234.392 65.7314 234.173 65.6348 233.963C65.5328 233.754 65.4474 233.567 65.3787 233.403L66.7754 231.814L66.969 231.984C66.9892 232.127 67.0199 232.302 67.0609 232.51C67.099 232.715 67.156 232.934 67.2319 233.167C67.3107 233.403 67.4156 233.636 67.5467 233.865C67.6777 234.095 67.8503 234.304 68.0644 234.492C68.3021 234.701 68.5615 234.861 68.8427 234.973C69.1213 235.088 69.4277 235.139 69.7617 235.126C70.0818 235.111 70.4174 235.013 70.7684 234.833C71.1164 234.65 71.4633 234.362 71.8089 233.969C72.17 233.558 72.4145 233.165 72.5425 232.788C72.6676 232.409 72.7118 232.063 72.6751 231.75C72.638 231.431 72.5403 231.14 72.3822 230.876C72.2215 230.615 72.0341 230.391 71.8199 230.203C71.6146 230.022 71.3851 229.875 71.1314 229.761C70.8748 229.645 70.615 229.565 70.352 229.521C70.1335 229.479 69.92 229.453 69.7117 229.441C69.5034 229.43 69.3286 229.424 69.1875 229.425L69.0115 229.27L70.3888 227.704C70.6176 227.775 70.8351 227.844 71.0415 227.911C71.2478 227.978 71.4538 228.06 71.6594 228.158C71.9277 228.284 72.1699 228.414 72.386 228.547C72.6022 228.68 72.8745 228.891 73.2031 229.179Z" fill="#013237"/>
<path d="M61.5325 218.036L64.9625 221.823L63.8159 222.861L62.8562 221.801L58.6827 225.581L59.6424 226.641L58.4959 227.679L55.066 223.892L56.2125 222.854L57.1723 223.914L61.3458 220.134L60.386 219.074L61.5325 218.036Z" fill="#013237"/>
<path d="M54.1011 208.751L57.8067 213.859L50.7446 218.982L47.039 213.874L48.405 212.883L50.7962 216.179L52.0151 215.295L49.7959 212.236L51.1618 211.245L53.381 214.304L55.1264 213.038L52.7352 209.742L54.1011 208.751Z" fill="#013237"/>
<path d="M45.773 195.231L46.7958 197.143L43.2628 203.233L48.5428 200.408L49.5158 202.226L41.8231 206.342L40.5543 203.971L43.4602 198.808L39.0533 201.166L38.0803 199.347L45.773 195.231Z" fill="#013237"/>
<path d="M40.7848 183.862C41.0063 184.472 41.1211 185.068 41.1292 185.651C41.1361 186.23 41.0288 186.77 40.8074 187.27C40.586 187.77 40.2465 188.22 39.7888 188.619C39.3298 189.014 38.7515 189.339 38.054 189.592C37.4041 189.828 36.7795 189.945 36.1801 189.943C35.5807 189.94 35.0246 189.822 34.5117 189.589C34.0188 189.365 33.5779 189.026 33.1889 188.573C32.7986 188.117 32.49 187.576 32.2632 186.952C32.1379 186.607 32.0453 186.289 31.9857 185.999C31.921 185.707 31.8772 185.432 31.8543 185.174C31.8346 184.903 31.8329 184.652 31.849 184.422C31.86 184.189 31.8749 183.984 31.8937 183.807L33.8818 183.085L33.9698 183.327C33.919 183.462 33.8618 183.63 33.798 183.832C33.7328 184.03 33.6775 184.25 33.6321 184.491C33.588 184.736 33.5682 184.99 33.5728 185.254C33.5774 185.519 33.6284 185.785 33.7258 186.053C33.8338 186.35 33.9842 186.616 34.1771 186.849C34.3662 187.084 34.6105 187.275 34.9098 187.424C35.1978 187.565 35.539 187.64 35.9335 187.651C36.3266 187.658 36.7691 187.572 37.2611 187.393C37.7751 187.206 38.1787 186.979 38.4718 186.71C38.7635 186.438 38.9685 186.155 39.0867 185.863C39.2073 185.566 39.2616 185.263 39.2497 184.956C39.2341 184.65 39.1776 184.363 39.0802 184.095C38.9868 183.838 38.8563 183.599 38.6884 183.377C38.5193 183.152 38.33 182.957 38.1204 182.792C37.9486 182.65 37.7741 182.525 37.5969 182.415C37.4197 182.304 37.2691 182.216 37.1449 182.149L37.0649 181.928L39.0255 181.216C39.1919 181.388 39.3496 181.553 39.4984 181.711C39.6472 181.869 39.7883 182.04 39.9217 182.224C40.0962 182.464 40.2463 182.695 40.3721 182.915C40.4979 183.135 40.6354 183.451 40.7848 183.862Z" fill="#013237"/>
<path d="M35.5438 166.794L36.8892 172.959L28.3652 174.819L27.0198 168.654L28.6685 168.294L29.5367 172.273L31.0079 171.951L30.2022 168.259L31.8509 167.899L32.6566 171.592L34.7633 171.132L33.8951 167.153L35.5438 166.794Z" fill="#013237"/>
<path d="M29.1794 150.054C28.3592 150.068 27.6552 149.79 27.0674 149.222C26.4795 148.65 26.1786 147.954 26.1647 147.134C26.1508 146.313 26.428 145.609 26.9963 145.022C27.5645 144.43 28.2587 144.127 29.0789 144.113C29.8991 144.099 30.6031 144.378 31.191 144.951C31.7788 145.519 32.0797 146.213 32.0935 147.033C32.1074 147.853 31.8303 148.559 31.2621 149.151C30.6938 149.739 29.9996 150.04 29.1794 150.054Z" fill="#013237"/>
<path d="M35.0275 122.37L33.8916 128.577L25.3095 127.007L26.4453 120.8L28.1053 121.103L27.3723 125.109L28.8536 125.38L29.5338 121.663L31.1937 121.966L30.5135 125.684L32.6346 126.072L33.3675 122.066L35.0275 122.37Z" fill="#013237"/>
<path d="M35.0515 105.29C35.8226 105.546 36.4555 105.951 36.9502 106.507C37.4412 107.061 37.7606 107.661 37.9083 108.307C38.0188 108.792 38.0422 109.292 37.9786 109.806C37.9149 110.32 37.7735 110.907 37.5544 111.566L36.5849 114.486L28.3049 111.736L29.3021 108.733C29.5261 108.059 29.7769 107.496 30.0543 107.044C30.328 106.592 30.6241 106.233 30.9425 105.969C31.4806 105.514 32.1003 105.221 32.8018 105.092C33.5008 104.958 34.2507 105.024 35.0515 105.29ZM34.3017 107.492C33.7567 107.311 33.2582 107.256 32.8062 107.329C32.3517 107.396 31.9437 107.608 31.5821 107.966C31.402 108.149 31.2552 108.349 31.1418 108.566C31.0259 108.779 30.8917 109.115 30.739 109.575L30.5599 110.114L35.7425 111.835L35.9217 111.296C36.0903 110.788 36.1918 110.408 36.2261 110.156C36.2567 109.903 36.2484 109.643 36.2011 109.376C36.108 108.913 35.9062 108.529 35.5958 108.224C35.2817 107.918 34.8503 107.674 34.3017 107.492Z" fill="#013237"/>
<path d="M42.7524 90.3244C43.7145 90.8109 44.3037 91.4766 44.5199 92.3213C44.7362 93.1661 44.5561 94.1584 43.9797 95.2983C43.4032 96.4382 42.7107 97.1714 41.9022 97.4979C41.0954 97.8209 40.2126 97.74 39.254 97.2552L34.2814 94.7406L35.3021 92.7222L40.1597 95.1787C40.7 95.4519 41.1599 95.5423 41.5394 95.4497C41.9189 95.357 42.2373 95.0563 42.4947 94.5473C42.7485 94.0454 42.8064 93.615 42.6683 93.2563C42.5319 92.894 42.1831 92.571 41.6219 92.2872L36.7644 89.8307L37.785 87.8124L42.7524 90.3244Z" fill="#013237"/>
<path d="M51.9891 81.1482C51.6183 81.6801 51.1969 82.1173 50.7249 82.4596C50.2551 82.7988 49.752 83.0218 49.2155 83.1287C48.679 83.2357 48.1159 83.2169 47.5262 83.0724C46.9387 82.9247 46.3405 82.6386 45.7317 82.2142C45.1645 81.8187 44.7094 81.3753 44.3664 80.8837C44.0234 80.3922 43.7997 79.8696 43.6953 79.3158C43.5947 78.7838 43.6177 78.2284 43.7641 77.6496C43.9128 77.0675 44.177 76.5041 44.5568 75.9593C44.7668 75.6581 44.9732 75.3997 45.176 75.1839C45.3778 74.9627 45.5775 74.7686 45.7749 74.6015C45.9855 74.4292 46.1895 74.2834 46.3871 74.164C46.5836 74.0391 46.7598 73.9333 46.9154 73.8466L48.6506 75.0564L48.5032 75.2678C48.3637 75.3039 48.1931 75.354 47.9913 75.4181C47.7917 75.479 47.5803 75.5602 47.3571 75.6617C47.1317 75.7665 46.9123 75.8968 46.6988 76.0527C46.4853 76.2087 46.2971 76.4036 46.134 76.6375C45.953 76.8971 45.8227 77.1728 45.7429 77.4648C45.6599 77.7546 45.6437 78.0647 45.6942 78.3952C45.7451 78.7116 45.8798 79.0341 46.0983 79.3626C46.3191 79.688 46.6442 80.0004 47.0736 80.2997C47.5222 80.6125 47.9407 80.8114 48.329 80.8964C48.7196 80.9782 49.0684 80.9833 49.3755 80.9117C49.688 80.8391 49.9665 80.7095 50.2109 80.5227C50.4522 80.3338 50.6544 80.1224 50.8174 79.8885C50.9738 79.6641 51.0943 79.4196 51.1789 79.1548C51.2658 78.8868 51.3163 78.6196 51.3306 78.3533C51.3471 78.1315 51.3494 77.9165 51.3375 77.7082C51.3256 77.4999 51.3113 77.3257 51.2947 77.1855L51.4288 76.9933L53.1399 78.1862C53.0949 78.4215 53.0507 78.6455 53.0073 78.858C52.9638 79.0706 52.9052 79.2845 52.8313 79.4997C52.7355 79.7805 52.6338 80.0357 52.5261 80.2654C52.4183 80.495 52.2394 80.7893 51.9891 81.1482Z" fill="#013237"/>
<path d="M64.0956 65.7545L62.5187 67.4646L60.813 66.7126L58.6204 69.0904L59.5078 70.7296L57.9705 72.3966L53.7414 64.113L55.4971 62.2091L64.0956 65.7545ZM59.2676 66.0288L56.2406 64.696L57.8138 67.6054L59.2676 66.0288Z" fill="#013237"/>
<path d="M69.8046 50.8873L67.7155 52.6363L72.2328 58.0321L70.5076 59.4764L65.9902 54.0806L63.9011 55.8296L62.8178 54.5357L68.7213 49.5934L69.8046 50.8873Z" fill="#013237"/>
<path d="M83.7997 49.3203L79.5536 52.1622L78.6932 50.8767L79.8813 50.0815L76.7494 45.402L75.5612 46.1972L74.7009 44.9117L78.947 42.0698L79.8073 43.3553L78.6192 44.1505L81.7512 48.83L82.9393 48.0348L83.7997 49.3203Z" fill="#013237"/>
<path d="M94.0734 38.4346C94.7007 39.6758 94.8437 40.8421 94.5025 41.9337C94.1596 43.0217 93.3606 43.8829 92.1055 44.5172C90.8539 45.1498 89.6884 45.2814 88.609 44.9123C87.5277 44.5396 86.6735 43.7327 86.0462 42.4915C85.4137 41.24 85.2698 40.0719 85.6145 38.9873C85.9575 37.8992 86.7547 37.0389 88.0063 36.4064C89.2544 35.7756 90.4199 35.6439 91.5029 36.0113C92.584 36.3753 93.4409 37.183 94.0734 38.4346ZM92.408 41.7514C92.4835 41.4156 92.4872 41.0636 92.4192 40.6953C92.3495 40.3235 92.2045 39.9197 91.9843 39.4839C91.7481 39.0168 91.4932 38.6466 91.2195 38.3735C90.9458 38.1005 90.6707 37.9069 90.3942 37.7928C90.1107 37.6734 89.8284 37.6257 89.5472 37.6497C89.2696 37.6718 89.0052 37.7463 88.7542 37.8732C88.4997 38.0018 88.2821 38.1687 88.1013 38.3739C87.9239 38.5773 87.794 38.8312 87.7115 39.1355C87.6358 39.4188 87.6294 39.7612 87.6923 40.1628C87.7569 40.559 87.9037 40.9838 88.1328 41.437C88.3671 41.9007 88.6194 42.27 88.8896 42.5448C89.1616 42.8144 89.4367 43.008 89.7149 43.1256C89.9932 43.2432 90.2738 43.2918 90.5567 43.2713C90.8396 43.2509 91.1101 43.1755 91.3681 43.0451C91.6261 42.9147 91.8472 42.7417 92.0314 42.526C92.2139 42.3069 92.3394 42.0487 92.408 41.7514Z" fill="#013237"/>
<path d="M111.436 36.1477L109.376 36.8247L103.988 32.2924L105.859 37.9812L103.899 38.6253L101.175 30.337L103.73 29.4971L108.313 33.2516L106.752 28.5035L108.711 27.8594L111.436 36.1477Z" fill="#013237"/>
<path d="M128.01 28.109C127.921 27.2935 128.133 26.5671 128.645 25.9298C129.161 25.2921 129.827 24.9288 130.642 24.84C131.458 24.7512 132.184 24.9628 132.821 25.4749C133.463 25.9867 133.828 26.6503 133.916 27.4657C134.005 28.2812 133.792 29.0078 133.276 29.6456C132.764 30.2829 132.1 30.646 131.284 30.7348C130.469 30.8236 129.74 30.6122 129.099 30.1005C128.462 29.5883 128.099 28.9245 128.01 28.109Z" fill="#013237"/>
</svg>
